<?xml version="1.0" encoding="utf-8"?>
<!-- Generator: Adobe Illustrator 20.0.0, SVG Export Plug-In . SVG Version: 6.00 Build 0)  -->
<svg version="1.1" id="Layer_2" xmlns="http://www.w3.org/2000/svg" xmlns:xlink="http://www.w3.org/1999/xlink" x="0px" y="0px"
	 width="117.5px" height="92.6px" viewBox="0 0 117.5 92.6" enable-background="new 0 0 117.5 92.6" xml:space="preserve">
<path fill="none" stroke="#2B4888" stroke-width="4" stroke-miterlimit="10" d="M17.8,46.2C17.9,21.7,37.8,1.9,62.2,2
	c24.5,0.1,44.2,19.9,44.2,44.4S86.5,90.6,62,90.6C37.5,90.5,17.8,70.6,17.8,46.2z"/>
<path fill="#7DEAFE" d="M0,38.8c0-2.7,2.2-4.8,4.8-4.8c2.7,0,4.8,2.2,4.8,4.8c0,2.7-2.2,4.8-4.8,4.8C2.2,43.6,0,41.4,0,38.8z"/>
<path fill="#2B4888" d="M8.2,75.9c0-2.7,2.2-4.8,4.8-4.8s4.8,2.2,4.8,4.8s-2.2,4.8-4.8,4.8C10.3,80.7,8.2,78.6,8.2,75.9z"/>
<path fill="#82AAFE" d="M107.8,72.9c0-2.7,2.2-4.8,4.8-4.8c2.7,0,4.8,2.2,4.8,4.8c0,2.7-2.2,4.8-4.8,4.8
	C109.9,77.7,107.8,75.6,107.8,72.9z"/>
</svg>
