<?xml version="1.0" encoding="utf-8"?>
<!-- Generator: Adobe Illustrator 20.0.0, SVG Export Plug-In . SVG Version: 6.00 Build 0)  -->
<svg version="1.1" id="Layer_1" xmlns="http://www.w3.org/2000/svg" xmlns:xlink="http://www.w3.org/1999/xlink" x="0px" y="0px"
	 width="216px" height="93.9px" viewBox="0 0 216 93.9" enable-background="new 0 0 216 93.9" xml:space="preserve">
<g>
	<path fill="#FFFFFF" d="M139.4,30.9l-31-20.9l-31,20.8v62.1h62V30.9z"/>
	<path fill="none" stroke="#224889" stroke-miterlimit="10" d="M77.4,30.4v62.5 M139.4,30.4v62.5"/>
	<path fill="#224889" d="M100.9,55.1h15V80h-15V55.1z"/>
	<path fill="#224889" d="M117.9,79.9h-1l0,0H100l0,0h-1.1v4.9h1l0,0h16.9l0,0h1L117.9,79.9L117.9,79.9z M115.9,83.9h-15.1v-3h15.1
		V83.9z M119.8,83.9h-1.3l0,0H98.1l0,0h-1.3v4.9h1.3l0,0h20.5l0,0h1.3L119.8,83.9L119.8,83.9z M117.4,87.8H99.2v-3h18.2
		C117.4,84.8,117.4,87.8,117.4,87.8z M121.9,87.8h-1.5l0,0h-24l0,0h-1.5v4.9h1.5l0,0h24l0,0h1.5V87.8z M119.1,91.8H97.7v-3h21.4
		V91.8z"/>
	<g>
		<path fill="#70FAFF" stroke="#224889" stroke-width="1.0142" stroke-miterlimit="10" d="M120.6,36.9c0,0.4,0,0.6,0,1
			c0,3.7-6.2,10.1-12.3,10.1c-6.2,0-12.2-6.3-12.2-10.1c0-0.5,0-0.7,0-1c0-4,6-9.8,12.2-9.8S120.6,33.1,120.6,36.9z"/>
		<path fill="#224889" d="M107.4,27.1h1.9V48h-1.9V27.1z"/>
		<path fill="#77ACFF" stroke="#224889" stroke-width="0.9894" stroke-miterlimit="10" d="M112,48.3h-7.3c-1.1,0-2-0.9-2-2l0,0
			c0-1.1,0.9-2,2-2h7.3c1.1,0,2,0.9,2,2l0,0C114,47.4,113.1,48.3,112,48.3z"/>
	</g>
	<g>
		<path fill="#70FAFF" stroke="#224889" stroke-miterlimit="10" d="M121.4,46.9h-26c0,0,0-11.9,0-12.5v-0.1
			c1.7-5.3,7.4-8.7,13.2-8.7c5.7,0,10.8,3.3,12.8,8.4c0,0,0,0,0,0.2C121.4,34.6,121.4,46.9,121.4,46.9z"/>
		<path fill="#77ACFF" stroke="#224889" stroke-width="1.0043" stroke-miterlimit="10" d="M121.3,48.3H95.7c-1.1,0-2-0.9-2-2l0,0
			c0-1.1,0.9-2,2-2h25.7c1.1,0,2,0.9,2,2l0,0C123.3,47.4,122.4,48.3,121.3,48.3z"/>
		<path fill="#00AEEF" stroke="#224889" stroke-width="2" stroke-miterlimit="10" d="M108.4,25.6c0,0,0,18,0,18.3"/>
	</g>
	<path fill="#224889" d="M81.9,0h13v19.1h-13V0z"/>
	<path fill="#00AEEF" stroke="#224889" stroke-width="2" stroke-miterlimit="10" d="M70.4,35.5l38-25.5l37.9,25.5l3.7-5.1L108.4,2.1
		L66.3,30.4L70.4,35.5z"/>
	<path opacity="0.19" fill="#A6CFFE" enable-background="new    " d="M77.9,31.7v6.8l29.6-21.6h1l30.4,21.2v-6.3l-30.5-20.6
		L77.9,31.7z"/>
	<path fill="none" stroke="#224889" stroke-width="2.0127" stroke-miterlimit="10" d="M76.9,92.9h63"/>
	<path opacity="0.19" fill="#A6CFFE" enable-background="new    " d="M117.9,79.9h4v4h-4V79.9z M119.8,83.9h4v4h-4V83.9z
		 M121.9,87.8h4v4h-4V87.8z"/>
</g>
</svg>
