<?xml version="1.0" encoding="utf-8"?>
<!-- Generator: Adobe Illustrator 20.0.0, SVG Export Plug-In . SVG Version: 6.00 Build 0)  -->
<svg version="1.1" xmlns="http://www.w3.org/2000/svg" xmlns:xlink="http://www.w3.org/1999/xlink" x="0px" y="0px" width="216px"
	 height="93.9px" viewBox="0 0 216 93.9" enable-background="new 0 0 216 93.9" xml:space="preserve">
<g id="Layer_3">
	<rect x="18.8" y="47.1" opacity="0.26" fill="#FFFFFF" width="179.1" height="45.8"/>
	<line fill="#FFFFFF" stroke="#224889" stroke-width="2.0172" stroke-miterlimit="10" x1="18.8" y1="46.3" x2="18.8" y2="92.9"/>
	<line fill="#FFFFFF" stroke="#224889" stroke-width="2.0172" stroke-miterlimit="10" x1="197.9" y1="46.3" x2="197.9" y2="92.9"/>
	<rect x="19.8" y="46.8" opacity="0.19" fill="#A6CFFE" width="57" height="6"/>
	<rect x="139.9" y="46.8" opacity="0.19" fill="#A6CFFE" width="57" height="6"/>
	<g>
		<path fill="#70FAFF" stroke="#224889" stroke-width="1.0142" stroke-miterlimit="10" d="M40.8,76.3H28.8c0,0,0-15.8,0-18.6
			c0-0.1,0-0.6,0.1-0.6c1.1-2.8,3.6-3.9,6-3.9c2.3,0,5.2,1.6,6,3.9c0,0,0,0.2,0,0.2C40.8,59.7,40.8,76.3,40.8,76.3z"/>
		<path fill="#77ACFF" stroke="#224889" stroke-width="0.9495" stroke-miterlimit="10" d="M41.4,78H28.2c-1,0-1.8-0.8-1.8-1.8v-0.1
			c0-1,0.8-1.8,1.8-1.8h13.2c1,0,1.8,0.8,1.8,1.8v0.1C43.2,77.2,42.4,78,41.4,78z"/>
		<line fill="#00AEEF" stroke="#224889" stroke-width="2.0283" stroke-miterlimit="10" x1="34.8" y1="53.2" x2="34.8" y2="74.5"/>
	</g>
	<g>
		<path fill="#70FAFF" stroke="#224889" stroke-width="1.0142" stroke-miterlimit="10" d="M66.9,76.3H54.8c0,0,0-15.8,0-18.6
			c0-0.1,0-0.6,0.1-0.6c1.1-2.8,3.6-3.9,6-3.9c2.3,0,5.2,1.6,6,3.9c0,0,0,0.2,0,0.2C66.9,59.7,66.9,76.3,66.9,76.3z"/>
		<path fill="#77ACFF" stroke="#224889" stroke-width="0.9495" stroke-miterlimit="10" d="M67.5,78H54.3c-1,0-1.8-0.8-1.8-1.8v-0.1
			c0-1,0.8-1.8,1.8-1.8h13.2c1,0,1.8,0.8,1.8,1.8v0.1C69.3,77.2,68.4,78,67.5,78z"/>
		<line fill="#00AEEF" stroke="#224889" stroke-width="2.0283" stroke-miterlimit="10" x1="60.9" y1="53.2" x2="60.9" y2="74.5"/>
	</g>
	<g>
		<path fill="#70FAFF" stroke="#224889" stroke-width="1.0142" stroke-miterlimit="10" d="M187.3,76.4h-12.1c0,0,0-15.8,0-18.6
			c0-0.1,0-0.6,0.1-0.6c1.1-2.8,3.6-3.9,6-3.9c2.3,0,5.2,1.6,6,3.9c0,0,0,0.2,0,0.2C187.3,59.7,187.3,76.4,187.3,76.4z"/>
		<path fill="#77ACFF" stroke="#224889" stroke-width="0.9495" stroke-miterlimit="10" d="M187.9,78h-13.2c-1,0-1.8-0.8-1.8-1.8
			v-0.1c0-1,0.8-1.8,1.8-1.8h13.2c1,0,1.8,0.8,1.8,1.8v0.1C189.7,77.2,188.9,78,187.9,78z"/>
		<line fill="#00AEEF" stroke="#224889" stroke-width="2.0283" stroke-miterlimit="10" x1="181.3" y1="53.3" x2="181.3" y2="74.5"/>
	</g>
	<line fill="#FFFFFF" stroke="#224889" stroke-width="0.9958" stroke-miterlimit="10" x1="9.8" y1="46.3" x2="207.1" y2="46.3"/>
	<line fill="#FFFFFF" stroke="#224889" stroke-width="2" stroke-miterlimit="10" x1="0" y1="92.9" x2="216" y2="92.9"/>
	<rect x="139.9" y="52.8" opacity="0.19" fill="#A6CFFE" width="7.8" height="39.1"/>
	<g>
		<path fill="#70FAFF" stroke="#224889" stroke-width="1.0142" stroke-miterlimit="10" d="M161.3,76.4h-12.1c0,0,0-15.8,0-18.6
			c0-0.1,0-0.6,0.1-0.6c1.1-2.8,3.6-3.9,6-3.9c2.3,0,5.2,1.6,6,3.9c0,0,0,0.2,0,0.2C161.3,59.7,161.3,76.4,161.3,76.4z"/>
		<path fill="#77ACFF" stroke="#224889" stroke-width="0.9495" stroke-miterlimit="10" d="M161.9,78h-13.2c-1,0-1.8-0.8-1.8-1.8
			v-0.1c0-1,0.8-1.8,1.8-1.8h13.2c1,0,1.8,0.8,1.8,1.8v0.1C163.7,77.2,162.8,78,161.9,78z"/>
		<line fill="#00AEEF" stroke="#224889" stroke-width="2.0283" stroke-miterlimit="10" x1="155.3" y1="53.3" x2="155.3" y2="74.5"/>
	</g>
</g>
<g id="Layer_5">
	<g id="Layer_2">
	</g>
	<polygon fill="#A6CFFE" stroke="#224889" stroke-miterlimit="10" points="10.5,46.3 10.5,40.5 34,20.3 183.4,20.3 206.6,41 
		206.6,46.3 	"/>
	
		<rect x="10.3" y="40.5" fill="#00AEEF" stroke="#224889" stroke-width="1.0005" stroke-miterlimit="10" width="196.3" height="5.8"/>
</g>
<g id="Layer_4">
	<polygon fill="#FFFFFF" points="139.4,30.9 108.4,10 77.4,30.8 77.4,92.9 139.4,92.9 	"/>
	<line fill="none" stroke="#224889" stroke-miterlimit="10" x1="77.4" y1="30.4" x2="77.4" y2="92.9"/>
	<line fill="none" stroke="#224889" stroke-miterlimit="10" x1="139.4" y1="30.4" x2="139.4" y2="92.9"/>
	<rect x="100.9" y="55.1" fill="#224889" width="15" height="24.9"/>
	<path fill="#224889" d="M117.9,79.9h-1v0H100v0h-1.1v4.9h1v0h16.9v0h1V79.9z M115.9,83.9h-15.1v-3h15.1V83.9z"/>
	<path fill="#224889" d="M119.8,83.9h-1.3v0H98.1v0h-1.3v4.9h1.3v0h20.5v0h1.3V83.9z M117.4,87.8H99.2v-3h18.2V87.8z"/>
	<path fill="#224889" d="M121.9,87.8h-1.5v0h-24v0h-1.5v4.9h1.5v0h24v0h1.5V87.8z M119.1,91.8H97.7v-3h21.4V91.8z"/>
	<path fill="#70FAFF" stroke="#224889" stroke-width="1.0455" stroke-miterlimit="10" d="M121.4,46.9h-26c0,0,0-11.9,0-12.5
		c0,0,0-0.1,0-0.1c1.7-5.3,7.4-8.7,13.2-8.7c5.7,0,10.8,3.3,12.8,8.4c0,0,0,0,0,0.2C121.4,34.6,121.4,46.9,121.4,46.9z"/>
	<path fill="#77ACFF" stroke="#224889" stroke-width="1.0043" stroke-miterlimit="10" d="M121.3,48.3H95.7c-1.1,0-2-0.9-2-2v0
		c0-1.1,0.9-2,2-2h25.7c1.1,0,2,0.9,2,2v0C123.3,47.4,122.4,48.3,121.3,48.3z"/>
	<path fill="#00AEEF" stroke="#224889" stroke-width="2" stroke-miterlimit="10" d="M108.4,25.6c0,0,0,18,0,18.3"/>
	<rect x="81.9" fill="#224889" width="13" height="19.1"/>
	<polygon fill="#00AEEF" stroke="#224889" stroke-width="2" stroke-miterlimit="10" points="70.4,35.5 108.4,10 146.3,35.5 
		150,30.4 108.4,2.1 66.3,30.4 	"/>
	<polygon opacity="0.19" fill="#A6CFFE" points="77.9,31.7 77.9,38.5 107.5,16.9 108.5,16.9 138.9,38.1 138.9,31.8 108.4,11.2 	"/>
	<line fill="none" stroke="#224889" stroke-width="2" stroke-miterlimit="10" x1="77.3" y1="92.9" x2="139.5" y2="92.9"/>
	<rect x="117.9" y="79.9" opacity="0.19" fill="#A6CFFE" width="4" height="4"/>
	<rect x="119.8" y="83.9" opacity="0.19" fill="#A6CFFE" width="4" height="4"/>
	<rect x="121.9" y="87.8" opacity="0.19" fill="#A6CFFE" width="4" height="4"/>
</g>
</svg>
