<?xml version="1.0" encoding="utf-8"?>
<!-- Generator: Adobe Illustrator 20.0.0, SVG Export Plug-In . SVG Version: 6.00 Build 0)  -->
<svg version="1.1" id="Layer_1" xmlns="http://www.w3.org/2000/svg" xmlns:xlink="http://www.w3.org/1999/xlink" x="0px" y="0px"
	 width="216px" height="93.9px" viewBox="0 0 216 93.9" enable-background="new 0 0 216 93.9" xml:space="preserve">
<g>
	<path opacity="0.26" fill="#FFFFFF" enable-background="new    " d="M18.8,47.1h179.1v45.8H18.8V47.1z"/>
	<path fill="none" stroke="#224889" stroke-width="2.0172" stroke-miterlimit="10" d="M18.8,46.3v46.6"/>
	<path fill="none" stroke="#224889" stroke-width="2.0172" stroke-miterlimit="10" d="M197.9,46.3v46.6"/>
	<path fill="#70FAFF" stroke="#224889" stroke-width="1.0142" stroke-miterlimit="10" d="M40.8,76.3h-12c0,0,0-15.8,0-18.6
		c0-0.1,0-0.6,0.1-0.6c1.1-2.8,3.6-3.9,6-3.9c2.3,0,5.2,1.6,6,3.9v0.2C40.8,59.7,40.8,76.3,40.8,76.3z"/>
	<path fill="#77ACFF" stroke="#224889" stroke-width="0.9894" stroke-miterlimit="10" d="M41.3,78.3h-13c-1,0-1.9-0.8-1.9-1.9v-0.2
		c0-1,0.8-1.9,1.9-1.9h13c1,0,1.9,0.8,1.9,1.9v0.2C43.2,77.5,42.3,78.3,41.3,78.3z"/>
	<path fill="none" stroke="#224889" stroke-width="2.0283" stroke-miterlimit="10" d="M34.8,53.2v21.3"/>
	<path fill="#70FAFF" stroke="#224889" stroke-width="1.0142" stroke-miterlimit="10" d="M66.9,76.3H54.8c0,0,0-15.8,0-18.6
		c0-0.1,0-0.6,0.1-0.6c1.1-2.8,3.6-3.9,6-3.9c2.3,0,5.2,1.6,6,3.9v0.2C66.9,59.7,66.9,76.3,66.9,76.3z"/>
	<path fill="#77ACFF" stroke="#224889" stroke-width="0.9894" stroke-miterlimit="10" d="M67.4,78.3h-13c-1,0-1.9-0.8-1.9-1.9v-0.2
		c0-1,0.8-1.9,1.9-1.9h13c1,0,1.9,0.8,1.9,1.9v0.2C69.3,77.5,68.4,78.3,67.4,78.3z"/>
	<path fill="none" stroke="#224889" stroke-width="2.0283" stroke-miterlimit="10" d="M60.9,53.2v21.3"/>
	<path fill="#70FAFF" stroke="#224889" stroke-width="1.0142" stroke-miterlimit="10" d="M187.3,76.4h-12.1c0,0,0-15.8,0-18.6
		c0-0.1,0-0.6,0.1-0.6c1.1-2.8,3.6-3.9,6-3.9c2.3,0,5.2,1.6,6,3.9v0.2C187.3,59.7,187.3,76.4,187.3,76.4z"/>
	<path fill="#77ACFF" stroke="#224889" stroke-width="0.9873" stroke-miterlimit="10" d="M187.8,78.3h-13c-1,0-1.9-0.8-1.9-1.9v-0.2
		c0-1,0.8-1.9,1.9-1.9h13c1,0,1.9,0.8,1.9,1.9v0.2C189.7,77.5,188.8,78.3,187.8,78.3z"/>
	<path fill="none" stroke="#224889" stroke-width="2.0283" stroke-miterlimit="10" d="M181.3,53.3v21.2"/>
	<path fill="none" stroke="#224889" stroke-width="0.9958" stroke-miterlimit="10" d="M9.8,46.3h197.3"/>
	<path fill="none" stroke="#224889" stroke-width="2" stroke-miterlimit="10" d="M0,92.9h216"/>
	<path opacity="0.19" fill="#A6CFFE" enable-background="new    " d="M19.8,46.8h57v6h-57C19.8,52.8,19.8,46.8,19.8,46.8z
		 M139.9,46.8h57v6h-57V46.8z M139.9,52.8h7.8v39.1h-7.8V52.8z"/>
	<path fill="#70FAFF" stroke="#224889" stroke-width="1.0142" stroke-miterlimit="10" d="M161.3,76.4h-12.1c0,0,0-15.8,0-18.6
		c0-0.1,0-0.6,0.1-0.6c1.1-2.8,3.6-3.9,6-3.9c2.3,0,5.2,1.6,6,3.9v0.2C161.3,59.7,161.3,76.4,161.3,76.4z"/>
	<path fill="#77ACFF" stroke="#224889" stroke-width="0.9906" stroke-miterlimit="10" d="M161.8,78.3h-13c-1,0-1.9-0.8-1.9-1.9v-0.2
		c0-1,0.8-1.9,1.9-1.9h13c1,0,1.9,0.8,1.9,1.9v0.2C163.7,77.5,162.8,78.3,161.8,78.3z"/>
	<path fill="none" stroke="#224889" stroke-width="2.0283" stroke-miterlimit="10" d="M155.3,53.3v21.2"/>
</g>
</svg>
